PathFileType	4	(X/Y/Z)	E:\Qualisys_Data\Carbon_Farble_Plate\Data\Amateur_Runner\S2\T2\S2T2V21_c3d.trc
DataRate	CameraRate	NumFrames	NumMarkers	Units	OrigDataRate	OrigDataStartFrame	OrigNumFrames
200.000000	200.000000	4	39	mm	200.000000	78	313
Frame#	Time	LSHO			RSHO			LICST			RICST			LASIS			LHEEL			RASIS			LTROC			RTROC			SACR			LTH1			LSK4			LTH2			LTH3			RHM5			LSK2			LTH4			RTH1			LTOE			RTH2			RTH3			RTH4			LLEP			RLEP			LSK1			LSK3			RSK1			LHM5			RSK2			LFT1			RSK3			RSK4			LLME			RLME			RTOE			RHEEL			RFT1			RFT2			LFT2			
		X1	Y1	Z1	X2	Y2	Z2	X3	Y3	Z3	X4	Y4	Z4	X5	Y5	Z5	X6	Y6	Z6	X7	Y7	Z7	X8	Y8	Z8	X9	Y9	Z9	X10	Y10	Z10	X11	Y11	Z11	X12	Y12	Z12	X13	Y13	Z13	X14	Y14	Z14	X15	Y15	Z15	X16	Y16	Z16	X17	Y17	Z17	X18	Y18	Z18	X19	Y19	Z19	X20	Y20	Z20	X21	Y21	Z21	X22	Y22	Z22	X23	Y23	Z23	X24	Y24	Z24	X25	Y25	Z25	X26	Y26	Z26	X27	Y27	Z27	X28	Y28	Z28	X29	Y29	Z29	X30	Y30	Z30	X31	Y31	Z31	X32	Y32	Z32	X33	Y33	Z33	X34	Y34	Z34	X35	Y35	Z35	X36	Y36	Z36	X37	Y37	Z37	X38	Y38	Z38	X39	Y39	Z39	

79	0.39	-1618.295654296875	1524.022216796875	-425.9954223632812	-1515.072875976562	1508.242919921875	-145.5249481201172	-1612.978515625	1056.83251953125	-421.4547729492188	-1572.36474609375	1041.961669921875	-126.2859268188477	-1555.37255859375	1007.314025878906	-406.267578125	-1435.312744140625	129.3954620361328	-286.9838256835938	-1523.688598632812	988.0513916015624	-152.7579498291016	-1675.26025390625	932.7988891601562	-424.982177734375	-1685.24658203125	963.9725952148438	-111.8390274047852	-1685.4482421875	1095.601928710938	-258.6489562988281	-1473.6396484375	728.0491943359375	-434.3668823242188	-1472.37841796875	337.7645874023438	-392.4853820800781	-1551.932495117188	698.173828125	-429.1699523925781	-1437.39697265625	635.798828125	-408.4419555664062	-2245.508056640625	334.0587768554688	-131.5060272216797	-1485.856811523438	434.4733276367188	-408.4300842285156	-1516.478515625	607.7327270507812	-401.6971435546875	-1672.68115234375	689.5157470703125	-114.4396133422852	-1211.961059570312	220.3476409912109	-352.0649108886719	-1741.354248046875	725.3670043945312	-109.303955078125	-1719.10546875	600.4962158203125	-123.3550262451172	-1788.639770507812	640.1430053710938	-125.9933395385742	-1462.373779296875	570.9328002929688	-399.3760681152344	-1789.701171875	594.0599975585938	-120.2926483154297	-1409.274658203125	446.4373779296875	-402.9755859375	-1394.150756835938	348.1858215332031	-389.8808288574219	-1883.051025390625	515.2291259765625	-111.0783233642578	-1261.747192382812	170.8235473632812	-398.4447631835938	-1911.671264648438	590.1019287109375	-110.1882019042969	-1410.876220703125	108.9723739624023	-266.15869140625	-1979.017456054688	478.4617004394531	-116.1751556396484	-2003.570434570312	553.4981689453125	-121.4206771850586	-1391.442626953125	164.1671447753906	-357.5408020019531	-2170.011962890625	445.5177307128906	-145.3800354003906	-2223.550048828125	258.6017456054688	-182.3794403076172	-2165.2568359375	502.8271789550781	-203.1535034179688	-2189.378173828125	488.0587463378906	-239.8560028076172	-2201.368896484375	506.08984375	-186.7108459472656	-1422.390014648438	95.73336791992188	-317.5920104980469
80	0.395	-1598.331787109375	1520.891845703125	-427.0520324707031	-1494.519775390625	1506.48046875	-146.6208343505859	-1592.323608398438	1054.62890625	-421.79541015625	-1551.8408203125	1040.222045898438	-126.3510360717773	-1534.801147460938	1005.145263671875	-406.2865600585938	-1410.941162109375	125.9362564086914	-287.9120483398438	-1502.757080078125	986.8800659179688	-152.6446228027344	-1654.995849609375	930.3724975585938	-424.2898864746094	-1664.466918945312	961.5950317382812	-112.5073852539062	-1664.77978515625	1093.312622070312	-258.3699035644531	-1456.557006835938	722.622802734375	-435.6105041503906	-1450.773803710938	334.1816101074219	-390.8062744140625	-1535.301635742188	693.5904541015625	-429.6298828125	-1420.864624023438	630.253662109375	-409.7083740234375	-2228.048828125	347.0778503417969	-130.4129943847656	-1465.85498046875	430.453125	-406.9278564453125	-1500.178344726562	602.7720947265625	-401.4308166503906	-1648.860961914062	686.9346313476562	-114.1833572387695	-1188.000244140625	221.0397186279297	-349.0566101074219	-1718.761840820312	722.2948608398438	-109.3915634155273	-1693.211303710938	597.086181640625	-122.8334732055664	-1764.048706054688	636.3867797851562	-125.6202774047852	-1444.819458007812	566.6181640625	-398.5042419433594	-1763.182373046875	590.2266235351562	-118.9996795654297	-1389.284545898438	444.2853088378906	-401.6317443847656	-1372.095703125	346.6712951660156	-388.6465148925781	-1860.951904296875	514.64404296875	-111.7975692749023	-1236.843505859375	171.1704254150391	-396.6633605957031	-1886.165893554688	590.31787109375	-110.4702072143555	-1386.224243164062	106.232780456543	-266.296630859375	-1957.482421875	480.6647338867188	-116.3972091674805	-1979.642700195312	556.8986206054688	-121.7891082763672	-1366.862915039062	162.3088684082031	-356.5521850585938	-2148.868896484375	455.3865966796875	-146.0479278564453	-2209.755615234375	270.3564758300781	-180.4033050537109	-2140.703857421875	511.3345336914062	-204.3414916992188	-2165.7568359375	497.4829711914062	-240.8923797607422	-2176.67236328125	516.4810180664062	-187.0464019775391	-1397.326171875	93.42318725585938	-317.6588134765625
81	0.4	-1578.205444335938	1517.171875	-428.8866271972656	-1474.31787109375	1504.396728515625	-147.3809509277344	-1572.412719726562	1052.479125976562	-421.5921630859375	-1531.737060546875	1038.475219726562	-126.3876876831055	-1514.418212890625	1003.331909179688	-406.1521606445312	-1388.607543945312	122.3342590332031	-287.5979309082031	-1481.735107421875	984.994140625	-152.3030090332031	-1634.622314453125	927.5012817382812	-423.4619445800781	-1643.1142578125	958.6439819335938	-112.2992630004883	-1643.869018554688	1090.868041992188	-258.3352355957031	-1438.932006835938	717.5643920898438	-436.50048828125	-1429.778564453125	330.5404663085938	-389.36767578125	-1518.292846679688	688.5381469726562	-430.2534484863281	-1404.151245117188	624.5086669921875	-410.98876953125	-2210.123046875	360.3286437988281	-130.107177734375	-1447.01123046875	426.8180847167969	-405.3350830078125	-1484.115478515625	597.9627075195312	-401.4307250976562	-1623.462280273438	683.9778442382812	-112.7042922973633	-1165.720458984375	220.6105346679688	-346.2882385253906	-1694.972045898438	718.6575927734375	-108.7461166381836	-1667.817749023438	593.2802734375	-122.6192855834961	-1739.443481445312	632.0884399414062	-125.0309371948242	-1427.0771484375	563.2249145507812	-398.4105834960938	-1738.8759765625	586.2874755859375	-118.4993896484375	-1370.550659179688	441.8051147460938	-400.5828857421875	-1351.346801757812	343.9931640625	-387.4869689941406	-1838.265747070312	512.7486572265625	-111.2066192626953	-1214.156127929688	170.7389373779297	-394.4205627441406	-1859.438598632812	589.7645874023438	-109.3401336669922	-1363.273193359375	102.7613067626953	-265.6270751953125	-1934.637451171875	482.6073913574219	-116.1516876220703	-1954.395751953125	559.5286254882812	-122.4454727172852	-1344.177612304688	160.1410217285156	-355.3115844726562	-2126.92529296875	464.9345703125	-146.5770111083984	-2194.196044921875	281.971435546875	-179.2815093994141	-2117.0693359375	520.689208984375	-207.3661804199219	-2141.207275390625	506.0723266601562	-241.9626159667969	-2152.809326171875	528.2813110351562	-190.2874145507812	-1374.515869140625	90.97782135009766	-317.3658752441406
82	0.405	-1558.525146484375	1513.547973632812	-431.1911926269531	-1453.679077148438	1502.249267578125	-148.2738647460938	-1552.072509765625	1049.744750976562	-422.0634765625	-1511.706665039062	1035.42333984375	-126.050178527832	-1493.966064453125	1000.650817871094	-406.6361999511719	-1366.89794921875	119.5742721557617	-285.35791015625	-1460.999633789062	982.8718872070312	-152.2119293212891	-1614.45068359375	924.9318237304688	-423.3608703613281	-1622.362548828125	955.6369018554688	-113.0593643188477	-1623.7255859375	1088.069458007812	-258.2096862792969	-1422.213134765625	712.9168701171875	-437.86572265625	-1409.783813476562	326.9014282226562	-388.0883483886719	-1501.653198242188	683.81787109375	-431.3773498535156	-1386.88134765625	619.3167724609375	-411.9351806640625	-2191.583251953125	372.729248046875	-129.6912689208984	-1427.646850585938	423.0511169433594	-404.3145751953125	-1467.374755859375	593.0050659179688	-401.630126953125	-1599.091674804688	680.7820434570312	-112.3330459594727	-1145.0869140625	219.2665710449219	-344.1473999023438	-1669.993041992188	714.220703125	-107.549446105957	-1642.835327148438	589.5421752929688	-122.2160568237305	-1714.8017578125	627.2341918945312	-124.5992126464844	-1408.799438476562	559.2216796875	-397.6062622070312	-1714.312744140625	582.1533813476562	-118.405387878418	-1350.890258789062	438.5290222167969	-398.7799072265625	-1331.418334960938	341.1605224609375	-386.3699645996094	-1812.827880859375	512.0679931640625	-110.5487213134766	-1193.25390625	169.8273315429688	-392.6104736328125	-1834.011108398438	590.0748291015625	-110.5299224853516	-1341.868408203125	99.68702697753906	-264.3294067382812	-1911.106811523438	485.3169860839844	-115.9740142822266	-1928.429077148438	561.7561645507812	-122.8647689819336	-1322.851684570312	157.7117767333984	-353.4283447265625	-2103.7705078125	473.7725524902344	-147.2117462158203	-2178.6689453125	293.0975952148438	-177.7429351806641	-2091.61669921875	526.6038818359375	-207.620849609375	-2116.06103515625	514.5465087890625	-243.3899841308594	-2126.310546875	537.4423217773438	-191.2287750244141	-1353.10498046875	88.39614868164062	-316.4269714355469
